<svg xmlns="http://www.w3.org/2000/svg" viewBox="0 0 1200 640" role="img" aria-labelledby="title desc">
  <title id="title">Varo retail collection</title>
  <desc id="desc">Abstract teal retail display with layered product cards.</desc>
  <defs>
    <linearGradient id="bg" x1="0" y1="0" x2="1" y2="1">
      <stop offset="0" stop-color="#071b2a"/>
      <stop offset="0.55" stop-color="#0b3b43"/>
      <stop offset="1" stop-color="#0f766e"/>
    </linearGradient>
    <linearGradient id="glass" x1="0" y1="0" x2="1" y2="1">
      <stop offset="0" stop-color="#ffffff" stop-opacity="0.26"/>
      <stop offset="1" stop-color="#ffffff" stop-opacity="0.05"/>
    </linearGradient>
    <pattern id="grid" width="48" height="48" patternUnits="userSpaceOnUse">
      <path d="M48 0H0V48" fill="none" stroke="#d7fffa" stroke-opacity="0.08"/>
    </pattern>
    <filter id="shadow" x="-30%" y="-30%" width="160%" height="160%">
      <feDropShadow dx="0" dy="24" stdDeviation="24" flood-color="#001315" flood-opacity="0.36"/>
    </filter>
  </defs>
  <rect width="1200" height="640" rx="44" fill="url(#bg)"/>
  <rect width="1200" height="640" rx="44" fill="url(#grid)"/>
  <circle cx="1018" cy="70" r="220" fill="#69e0d2" opacity="0.09"/>
  <circle cx="778" cy="590" r="250" fill="#f4c16e" opacity="0.08"/>
  <g filter="url(#shadow)" transform="translate(742 94) rotate(8 170 220)">
    <rect x="0" y="0" width="340" height="440" rx="32" fill="url(#glass)" stroke="#d7fffa" stroke-opacity="0.28"/>
    <rect x="38" y="44" width="264" height="238" rx="26" fill="#e8fbf8" fill-opacity="0.95"/>
    <path d="M108 225c31-84 60-130 90-138 39 19 63 69 73 151-52 35-109 31-163-13Z" fill="#0f766e"/>
    <path d="M147 141c13 21 34 31 62 31s49-10 61-31" fill="none" stroke="#94f0e5" stroke-width="18" stroke-linecap="round"/>
    <rect x="38" y="316" width="176" height="20" rx="10" fill="#e8fbf8" fill-opacity="0.9"/>
    <rect x="38" y="354" width="118" height="14" rx="7" fill="#e8fbf8" fill-opacity="0.45"/>
  </g>
  <g transform="translate(640 310) rotate(-10 110 140)" filter="url(#shadow)">
    <rect width="220" height="280" rx="28" fill="#f6d690"/>
    <path d="M72 85h76l22 42-20 91H70l-20-91 22-42Z" fill="#0e2934"/>
    <path d="M83 84c2-24 13-36 27-36s26 12 27 36" fill="none" stroke="#0e2934" stroke-width="13" stroke-linecap="round"/>
  </g>
  <path d="M1050 430l46 46-46 46-46-46 46-46Z" fill="#83eadf" opacity="0.7"/>
  <path d="M1130 388l20 20-20 20-20-20 20-20Z" fill="#f6d690" opacity="0.9"/>
</svg>
